<svg id="Calque_1" data-name="Calque 1" xmlns="http://www.w3.org/2000/svg" viewBox="0 0 44 44"><defs><style>.cls-1{fill:#cac7ba;}</style></defs><title>icon_character</title><path class="cls-1" d="M20.08,33l-.31-2.76h-.14a8.14,8.14,0,0,1-6.7,3.25c-4.43,0-6.69-3.12-6.69-6.28,0-5.3,4.7-8.19,13.16-8.15v-.45c0-1.81-.49-5.06-5-5.06a11,11,0,0,0-5.7,1.62L7.82,12.5A13.58,13.58,0,0,1,15,10.56c6.69,0,8.32,4.56,8.32,9V27.7A31.07,31.07,0,0,0,23.7,33Zm-.59-11.18c-4.34-.09-9.27.68-9.27,4.93A3.52,3.52,0,0,0,14,30.5a5.46,5.46,0,0,0,5.29-3.66,4.35,4.35,0,0,0,.22-1.27Z"/><path class="cls-1" d="M35.58,33.14l-.19-1.66h-.08a4.92,4.92,0,0,1-4,2,3.76,3.76,0,0,1-4-3.79c0-3.19,2.83-4.93,7.93-4.9v-.28a2.72,2.72,0,0,0-3-3,6.53,6.53,0,0,0-3.43,1l-.55-1.58a8.18,8.18,0,0,1,4.34-1.17c4,0,5,2.75,5,5.4V30a18.87,18.87,0,0,0,.22,3.16Zm-.36-6.73c-2.61-.05-5.59.41-5.59,3a2.12,2.12,0,0,0,2.27,2.29,3.29,3.29,0,0,0,3.19-2.21,2.48,2.48,0,0,0,.13-.76Z"/></svg>